<svg xmlns="http://www.w3.org/2000/svg" width="720" height="700" viewBox="0 0 720 700" role="img" aria-label="往复式压气机：四段指示图"><title>往复式压气机：四段指示图</title><desc>余隙比0.05；p2/p1=4；压缩与再膨胀指数n=1.3</desc><defs><marker id="arrow" markerWidth="8" markerHeight="8" refX="7" refY="4" orient="auto-start-reverse"><path d="M0 0L8 4L0 8Z" fill="context-stroke"/></marker></defs><style>text{font-family:"Noto Sans CJK SC","Microsoft YaHei",sans-serif;fill:#172d40;font-size:18px}.small{font-size:16px}.title{font-size:26px;font-weight:700}.tick{font-size:16px}</style><rect width="720" height="100%" fill="#fff"/><text x="28" y="38" class="title">往复式压气机：四段指示图</text><text x="28" y="65" class="small">余隙比0.05；p2/p1=4；压缩与再膨胀指数n=1.3</text>
<polyline points="90.000,129.000 90.000,546.000" fill="none" stroke="#e4e9ed" stroke-width="1"/>
<text x="90.00" y="571.00" class="tick" text-anchor="middle">0</text>
<polyline points="190.364,129.000 190.364,546.000" fill="none" stroke="#e4e9ed" stroke-width="1"/>
<text x="190.36" y="571.00" class="tick" text-anchor="middle">0.2</text>
<polyline points="290.727,129.000 290.727,546.000" fill="none" stroke="#e4e9ed" stroke-width="1"/>
<text x="290.73" y="571.00" class="tick" text-anchor="middle">0.4</text>
<polyline points="391.091,129.000 391.091,546.000" fill="none" stroke="#e4e9ed" stroke-width="1"/>
<text x="391.09" y="571.00" class="tick" text-anchor="middle">0.6</text>
<polyline points="491.455,129.000 491.455,546.000" fill="none" stroke="#e4e9ed" stroke-width="1"/>
<text x="491.45" y="571.00" class="tick" text-anchor="middle">0.8</text>
<polyline points="591.818,129.000 591.818,546.000" fill="none" stroke="#e4e9ed" stroke-width="1"/>
<text x="591.82" y="571.00" class="tick" text-anchor="middle">1.0</text>
<polyline points="90.000,546.000 642.000,546.000" fill="none" stroke="#e4e9ed" stroke-width="1"/>
<text x="78.00" y="552.00" class="tick" text-anchor="end">0</text>
<polyline points="90.000,455.348 642.000,455.348" fill="none" stroke="#e4e9ed" stroke-width="1"/>
<text x="78.00" y="461.35" class="tick" text-anchor="end">1</text>
<polyline points="90.000,364.696 642.000,364.696" fill="none" stroke="#e4e9ed" stroke-width="1"/>
<text x="78.00" y="370.70" class="tick" text-anchor="end">2</text>
<polyline points="90.000,274.043 642.000,274.043" fill="none" stroke="#e4e9ed" stroke-width="1"/>
<text x="78.00" y="280.04" class="tick" text-anchor="end">3</text>
<polyline points="90.000,183.391 642.000,183.391" fill="none" stroke="#e4e9ed" stroke-width="1"/>
<text x="78.00" y="189.39" class="tick" text-anchor="end">4</text>
<polyline points="90.000,124.000 90.000,546.000 648.000,546.000" fill="none" stroke="#627080" stroke-width="2"/>
<text x="366.00" y="604.00" class="" text-anchor="middle">缸内容积 V / 扫气容积 Vs</text>
<text x="90.00" y="106.00" class="" text-anchor="start">压力 p / 吸气压力 p1</text>
<polyline points="616.909,455.348 613.454,454.569 609.999,453.779 606.544,452.976 603.088,452.161 599.633,451.333 596.178,450.492 592.723,449.638 589.268,448.770 585.812,447.888 582.357,446.992 578.902,446.081 575.447,445.156 571.992,444.215 568.536,443.259 565.081,442.286 561.626,441.297 558.171,440.292 554.716,439.269 551.260,438.228 547.805,437.170 544.350,436.093 540.895,434.996 537.440,433.881 533.984,432.745 530.529,431.589 527.074,430.412 523.619,429.213 520.164,427.992 516.708,426.748 513.253,425.481 509.798,424.190 506.343,422.874 502.888,421.533 499.432,420.166 495.977,418.772 492.522,417.351 489.067,415.901 485.612,414.422 482.157,412.912 478.701,411.372 475.246,409.801 471.791,408.196 468.336,406.558 464.881,404.885 461.425,403.176 457.970,401.430 454.515,399.646 451.060,397.823 447.605,395.959 444.149,394.053 440.694,392.104 437.239,390.110 433.784,388.070 430.329,385.983 426.873,383.846 423.418,381.658 419.963,379.417 416.508,377.122 413.053,374.770 409.597,372.360 406.142,369.889 402.687,367.355 399.232,364.755 395.777,362.088 392.321,359.351 388.866,356.541 385.411,353.656 381.956,350.691 378.501,347.645 375.046,344.513 371.590,341.294 368.135,337.981 364.680,334.573 361.225,331.065 357.770,327.453 354.314,323.732 350.859,319.897 347.404,315.943 343.949,311.866 340.494,307.659 337.038,303.316 333.583,298.832 330.128,294.198 326.673,289.409 323.218,284.456 319.762,279.331 316.307,274.026 312.852,268.532 309.397,262.838 305.942,256.934 302.486,250.808 299.031,244.450 295.576,237.844 292.121,230.979 288.666,223.838 285.210,216.405 281.755,208.664 278.300,200.595 274.845,192.178 271.390,183.391" fill="none" stroke="#ba3f35" stroke-width="3" marker-end="url(#arrow)"/>
<polyline points="271.390,183.391 115.091,183.391" fill="none" stroke="#ba3f35" stroke-width="3" marker-end="url(#arrow)"/>
<polyline points="115.091,183.391 115.569,192.178 116.047,200.595 116.525,208.664 117.003,216.405 117.481,223.838 117.959,230.979 118.437,237.844 118.914,244.450 119.392,250.808 119.870,256.934 120.348,262.838 120.826,268.532 121.304,274.026 121.782,279.331 122.260,284.456 122.738,289.409 123.216,294.198 123.694,298.832 124.172,303.316 124.650,307.659 125.128,311.866 125.606,315.943 126.084,319.897 126.562,323.732 127.039,327.453 127.517,331.065 127.995,334.573 128.473,337.981 128.951,341.294 129.429,344.513 129.907,347.645 130.385,350.691 130.863,353.656 131.341,356.541 131.819,359.351 132.297,362.088 132.775,364.755 133.253,367.355 133.731,369.889 134.209,372.360 134.687,374.770 135.165,377.122 135.642,379.417 136.120,381.658 136.598,383.846 137.076,385.983 137.554,388.070 138.032,390.110 138.510,392.104 138.988,394.053 139.466,395.959 139.944,397.823 140.422,399.646 140.900,401.430 141.378,403.176 141.856,404.885 142.334,406.558 142.812,408.196 143.290,409.801 143.767,411.372 144.245,412.912 144.723,414.422 145.201,415.901 145.679,417.351 146.157,418.772 146.635,420.166 147.113,421.533 147.591,422.874 148.069,424.190 148.547,425.481 149.025,426.748 149.503,427.992 149.981,429.213 150.459,430.412 150.937,431.589 151.415,432.745 151.893,433.881 152.370,434.996 152.848,436.093 153.326,437.170 153.804,438.228 154.282,439.269 154.760,440.292 155.238,441.297 155.716,442.286 156.194,443.259 156.672,444.215 157.150,445.156 157.628,446.081 158.106,446.992 158.584,447.888 159.062,448.770 159.540,449.638 160.018,450.492 160.496,451.333 160.973,452.161 161.451,452.976 161.929,453.779 162.407,454.569 162.885,455.348" fill="none" stroke="#17618c" stroke-width="3" marker-end="url(#arrow)"/>
<polyline points="162.885,455.348 616.909,455.348" fill="none" stroke="#17618c" stroke-width="3" marker-end="url(#arrow)"/>
<circle cx="616.909" cy="455.348" r="5.4" fill="#ba3f35" stroke="white" stroke-width="1.5"/>
<text x="626.91" y="446.35" class="" text-anchor="start">1</text>
<circle cx="271.390" cy="183.391" r="5.4" fill="#ba3f35" stroke="white" stroke-width="1.5"/>
<text x="281.39" y="171.39" class="" text-anchor="start">2</text>
<circle cx="115.091" cy="183.391" r="5.4" fill="#ba3f35" stroke="white" stroke-width="1.5"/>
<text x="89.09" y="171.39" class="" text-anchor="start">3</text>
<circle cx="162.885" cy="455.348" r="5.4" fill="#ba3f35" stroke="white" stroke-width="1.5"/>
<text x="140.89" y="484.35" class="" text-anchor="start">4</text>
<text x="428.00" y="330.00" class="" text-anchor="start" style="fill:#ba3f35">1→2 压缩</text>
<text x="170.00" y="154.00" class="" text-anchor="start" style="fill:#ba3f35">2→3 排气</text>
<text x="111.00" y="326.00" class="small" text-anchor="start" style="fill:#17618c">3→4 再膨胀</text>
<text x="310.00" y="490.00" class="" text-anchor="start" style="fill:#17618c">4→1 吸气</text>
<text x="360.00" y="631.00" class="small" text-anchor="middle">V4/Vs=0.14524；新吸气体积比=1.05−0.14524</text>
<text x="360.00" y="662.00" class="small" text-anchor="middle">流入流出的质量不同，不能当作同一团气体的闭口循环</text>
</svg>